<svg width="22" height="22" viewBox="0 0 22 22" fill="none" xmlns="http://www.w3.org/2000/svg">
<path d="M18.3334 18.3335C18.3334 18.8398 17.923 19.2502 17.4167 19.2502H4.58341C4.07716 19.2502 3.66675 18.8398 3.66675 18.3335V10.0835H0.916748L10.3834 1.4774C10.7331 1.15955 11.2671 1.15955 11.6167 1.4774L21.0834 10.0835H18.3334V18.3335ZM11.0001 15.5835L14.079 12.5046C14.8844 11.6992 14.8844 10.3932 14.079 9.58786C13.2735 8.78237 11.9676 8.78237 11.1621 9.58786L11.0001 9.74984L10.838 9.58786C10.0325 8.78237 8.72667 8.78237 7.92122 9.58786C7.11576 10.3932 7.11576 11.6992 7.92122 12.5046L11.0001 15.5835Z" fill="#597AA9"/>
</svg>
