<svg width="18" height="18" viewBox="0 0 18 18" fill="none" xmlns="http://www.w3.org/2000/svg">
<path d="M2.58333 8.17546L4.41667 6.34213L9.45833 11.3838L12.6667 8.17546L15.4167 10.9255V2.58333H2.58333V8.17546ZM1.66667 0.75H16.3333C16.8396 0.75 17.25 1.16041 17.25 1.66667V16.3333C17.25 16.8396 16.8396 17.25 16.3333 17.25H1.66667C1.16041 17.25 0.75 16.8396 0.75 16.3333V1.66667C0.75 1.16041 1.16041 0.75 1.66667 0.75ZM12.2083 7.16667C11.449 7.16667 10.8333 6.55106 10.8333 5.79167C10.8333 5.03227 11.449 4.41667 12.2083 4.41667C12.9677 4.41667 13.5833 5.03227 13.5833 5.79167C13.5833 6.55106 12.9677 7.16667 12.2083 7.16667Z" fill="#597AA9"/>
</svg>
