<svg width="20" height="20" viewBox="0 0 20 20" fill="none" xmlns="http://www.w3.org/2000/svg">
<path d="M6.9634 2.66666L9.35283 0.277278C9.71079 -0.0807074 10.2911 -0.0807074 10.6492 0.277278L13.0386 2.66666H16.4177C16.9239 2.66666 17.3343 3.07707 17.3343 3.58333V6.96243L19.7237 9.35184C20.0817 9.7098 20.0817 10.2902 19.7237 10.6482L17.3343 13.0376V16.4167C17.3343 16.923 16.9239 17.3333 16.4177 17.3333H13.0386L10.6492 19.7227C10.2911 20.0807 9.71079 20.0807 9.35283 19.7227L6.9634 17.3333H3.58431C3.07804 17.3333 2.66764 16.923 2.66764 16.4167V13.0376L0.278255 10.6482C-0.0797308 10.2902 -0.0797308 9.7098 0.278255 9.35184L2.66764 6.96243V3.58333C2.66764 3.07707 3.07804 2.66666 3.58431 2.66666H6.9634ZM10.001 12.75C11.5197 12.75 12.751 11.5187 12.751 10C12.751 8.48119 11.5197 7.24999 10.001 7.24999C8.48218 7.24999 7.25097 8.48119 7.25097 10C7.25097 11.5187 8.48218 12.75 10.001 12.75Z" fill="#597AA9"/>
</svg>
